<?xml version="1.0" standalone="no"?>
<!DOCTYPE svg PUBLIC "-//W3C//DTD SVG 20010904//EN"
 "http://www.w3.org/TR/2001/REC-SVG-20010904/DTD/svg10.dtd">
<svg version="1.0" xmlns="http://www.w3.org/2000/svg"
 width="100.000000pt" height="30.000000pt" viewBox="0 0 100.000000 30.000000"
 preserveAspectRatio="xMidYMid meet">

<g transform="translate(0.000000,30.000000) scale(0.100000,-0.100000)"
fill="#000000" stroke="none">
<path d="M0 235 c0 -37 4 -65 10 -65 6 0 10 13 10 29 0 25 5 30 28 34 l27 4
-27 2 c-23 1 -28 6 -28 25 0 19 6 26 28 29 22 3 20 4 -10 6 l-38 1 0 -65z"/>
<path d="M170 290 c0 -5 5 -10 10 -10 6 0 10 5 10 10 0 6 -4 10 -10 10 -5 0
-10 -4 -10 -10z"/>
<path d="M330 235 c0 -37 4 -65 10 -65 6 0 10 14 10 30 0 27 3 30 30 30 27 0
30 -3 30 -30 0 -16 5 -30 10 -30 6 0 10 28 10 65 0 37 -4 65 -10 65 -5 0 -10
-13 -10 -30 0 -27 -3 -30 -30 -30 -27 0 -30 3 -30 30 0 17 -4 30 -10 30 -6 0
-10 -28 -10 -65z"/>
<path d="M740 290 c0 -5 5 -10 10 -10 6 0 10 5 10 10 0 6 -4 10 -10 10 -5 0
-10 -4 -10 -10z"/>
<path d="M85 250 c-4 -7 2 -9 19 -4 16 4 26 2 26 -4 0 -6 -10 -12 -22 -14 -17
-2 -23 -10 -23 -28 0 -21 5 -26 33 -28 l33 -3 -3 43 c-3 38 -6 43 -30 46 -14
2 -29 -2 -33 -8z m37 -62 c-6 -6 -16 -7 -23 -3 -9 6 -7 12 7 22 21 15 34 -1
16 -19z"/>
<path d="M183 215 c0 -27 2 -38 4 -22 2 15 2 37 0 50 -2 12 -4 0 -4 -28z"/>
<path d="M220 215 c0 -25 5 -45 10 -45 6 0 10 16 10 35 0 22 6 38 18 44 14 9
13 10 -10 11 -26 0 -28 -3 -28 -45z"/>
<path d="M458 235 c-15 -33 -1 -59 34 -63 31 -4 50 19 46 55 -2 23 -8 29 -35
31 -27 3 -35 -1 -45 -23z m61 -4 c13 -24 -9 -57 -33 -48 -16 6 -22 47 -9 60
12 13 32 7 42 -12z"/>
<path d="M560 227 c0 -40 15 -57 52 -57 27 0 28 2 28 45 0 54 -18 60 -22 8 -2
-26 -8 -38 -18 -38 -10 0 -16 12 -18 38 -4 46 -22 49 -22 4z"/>
<path d="M663 243 c-4 -11 1 -22 15 -31 28 -18 29 -36 2 -29 -11 3 -20 1 -20
-4 0 -5 11 -9 25 -9 35 0 45 29 17 48 -28 18 -29 36 -2 29 11 -3 20 -1 20 4 0
16 -50 10 -57 -8z"/>
<path d="M740 215 c0 -25 5 -45 10 -45 6 0 10 20 10 45 0 25 -4 45 -10 45 -5
0 -10 -20 -10 -45z"/>
<path d="M791 211 c1 -25 3 -37 6 -26 2 11 6 30 9 43 2 12 11 22 19 22 8 0 17
-10 19 -22 13 -58 14 -60 13 -18 -2 44 -3 45 -34 46 -33 1 -33 1 -32 -45z"/>
<path d="M888 234 c-15 -33 0 -59 36 -59 14 1 26 -5 26 -11 0 -15 -35 -28 -50
-19 -5 3 -10 1 -10 -4 0 -6 -16 -11 -35 -11 l-35 0 0 -65 0 -65 68 1 c88 0
102 5 102 35 0 16 -8 28 -25 36 -14 6 -25 18 -25 26 0 10 7 12 25 8 15 -4 25
-2 25 5 0 6 -9 13 -20 16 -15 4 -17 9 -10 23 6 10 10 39 10 64 0 46 0 46 -35
46 -28 0 -38 -5 -47 -26z m57 -19 c0 -23 -4 -30 -20 -30 -21 0 -31 25 -21 51
11 28 41 12 41 -21z m-35 -106 c-9 -16 -8 -25 6 -40 9 -10 23 -19 31 -19 7 0
13 -6 13 -14 0 -10 -15 -14 -55 -14 -48 0 -55 2 -55 19 0 12 7 19 20 19 11 0
20 5 20 10 0 6 -9 10 -20 10 -11 0 -20 7 -20 15 0 8 9 15 20 15 11 0 20 5 20
10 0 6 7 10 15 10 13 0 14 -4 5 -21z"/>
<path d="M15 70 c-18 -61 -14 -89 9 -57 16 21 45 22 52 2 4 -8 14 -15 24 -15
16 0 16 5 -5 63 -16 44 -28 63 -42 65 -16 2 -23 -8 -38 -58z m43 -19 c-15 -5
-19 4 -11 24 6 18 7 18 13 -1 4 -10 3 -21 -2 -23z"/>
<path d="M130 65 l0 -65 35 0 c43 0 75 29 75 68 0 38 -28 62 -73 62 l-37 0 0
-65z m71 21 c13 -27 -3 -66 -26 -66 -11 0 -15 12 -15 45 0 51 22 63 41 21z"/>
<path d="M242 119 c3 -8 13 -38 22 -66 25 -75 48 -72 75 9 11 34 19 63 16 66
-12 12 -33 -10 -39 -42 -9 -46 -20 -46 -32 1 -6 25 -16 39 -28 41 -13 3 -17 0
-14 -9z"/>
<path d="M376 108 c-32 -45 -7 -108 42 -108 31 0 45 8 59 33 9 17 11 17 27 -7
14 -23 23 -26 70 -26 39 0 55 4 60 15 7 19 42 19 50 0 3 -8 13 -15 22 -15 9 0
14 6 12 13 -3 6 -13 36 -23 65 -14 44 -21 53 -38 50 -15 -2 -25 -18 -40 -63
-11 -33 -22 -54 -25 -47 -2 6 -8 10 -13 6 -5 -3 -18 -2 -29 1 -15 5 -20 15
-20 40 0 25 5 35 20 40 11 3 24 3 30 0 5 -3 10 1 10 9 0 27 -55 20 -78 -9 -23
-28 -32 -32 -32 -10 0 37 -80 47 -104 13z m69 -43 c0 -30 -4 -41 -17 -43 -26
-5 -44 39 -28 67 19 36 45 22 45 -24z m225 -1 c0 -8 -6 -14 -14 -14 -9 0 -12
7 -9 20 6 22 23 18 23 -6z"/>
<path d="M710 120 c0 -5 7 -10 15 -10 12 0 15 -13 15 -55 0 -42 3 -55 15 -55
12 0 15 13 15 55 0 48 2 55 20 55 11 0 20 5 20 10 0 6 -22 10 -50 10 -27 0
-50 -4 -50 -10z"/>
</g>
</svg>
